<svg width="16" height="16" viewBox="0 0 16 16" fill="none" xmlns="http://www.w3.org/2000/svg">
<path d="M7.86333 14.0002H3.33333C2.59695 14.0002 2 13.4032 2 12.6668V4.66683C2 3.93045 2.59695 3.3335 3.33333 3.3335H11.3333C12.0697 3.3335 12.6667 3.93045 12.6667 4.66683V7.3335" stroke="#4B465C" stroke-linecap="round" stroke-linejoin="round"/>
<path d="M7.86333 14.0002H3.33333C2.59695 14.0002 2 13.4032 2 12.6668V4.66683C2 3.93045 2.59695 3.3335 3.33333 3.3335H11.3333C12.0697 3.3335 12.6667 3.93045 12.6667 4.66683V7.3335" stroke="white" stroke-opacity="0.2" stroke-linecap="round" stroke-linejoin="round"/>
<path d="M12 9.3335V12.0002H14.6667" stroke="#4B465C" stroke-linecap="round" stroke-linejoin="round"/>
<path d="M12 9.3335V12.0002H14.6667" stroke="white" stroke-opacity="0.2" stroke-linecap="round" stroke-linejoin="round"/>
<circle cx="11.9999" cy="12.0002" r="2.66667" stroke="#4B465C" stroke-linecap="round" stroke-linejoin="round"/>
<circle cx="11.9999" cy="12.0002" r="2.66667" stroke="white" stroke-opacity="0.2" stroke-linecap="round" stroke-linejoin="round"/>
<path opacity="0.1" d="M10.0001 2V4.66667" stroke="#4B465C" stroke-linecap="round" stroke-linejoin="round"/>
<path d="M4.66659 2V4.66667" stroke="#4B465C" stroke-linecap="round" stroke-linejoin="round"/>
<path d="M4.66659 2V4.66667" stroke="white" stroke-opacity="0.2" stroke-linecap="round" stroke-linejoin="round"/>
<path d="M2 7.33333H12.6667" stroke="#4B465C" stroke-linecap="round" stroke-linejoin="round"/>
<path d="M2 7.33333H12.6667" stroke="white" stroke-opacity="0.2" stroke-linecap="round" stroke-linejoin="round"/>
</svg>
